<?xml version="1.0" encoding="utf-8"?>
<!-- Generator: Adobe Illustrator 17.0.0, SVG Export Plug-In . SVG Version: 6.00 Build 0)  -->
<!DOCTYPE svg PUBLIC "-//W3C//DTD SVG 1.1//EN" "http://www.w3.org/Graphics/SVG/1.1/DTD/svg11.dtd">
<svg version="1.1" id="Layer_1" xmlns="http://www.w3.org/2000/svg" xmlns:xlink="http://www.w3.org/1999/xlink" x="0px" y="0px"
	 width="227.941px" height="220px" viewBox="0 0 227.941 220" enable-background="new 0 0 227.941 220" xml:space="preserve">
<path fill="none" d="M90.068,109.712c-0.751,0-1.48-0.091-2.193-0.233C88.588,109.627,89.318,109.712,90.068,109.712z"/>
<path fill="none" d="M84.475,108.186c-0.024-0.014-0.045-0.026-0.066-0.038C84.431,108.163,84.452,108.175,84.475,108.186z"/>
<path fill="none" d="M87.412,109.372c-0.473-0.114-0.924-0.273-1.373-0.445C86.488,109.106,86.944,109.255,87.412,109.372z"/>
<path fill="#438AC9" d="M142.542,122.329c6.108,0,11.051,4.919,11.051,10.985c0,6.086-4.942,11.007-11.051,11.007
	c-6.086,0-11.026-4.919-11.026-11.007C131.517,127.251,136.457,122.329,142.542,122.329z M142.542,116.61
	c-9.266,0-16.77,7.484-16.77,16.704c0,9.244,7.504,16.727,16.77,16.727c9.266,0,16.793-7.484,16.793-16.727
	C159.336,124.093,151.809,116.61,142.542,116.61z M50.935-3v169.305h125.835V27.773L145.86-3H50.935z M174.367,31.318h-31.916V0.546
	L174.367,31.318z M64.662,93.092h64.061v9.152H64.662V93.092z M64.662,42.758h64.061v9.152H64.662V42.758z M64.662,65.638H165.33
	v9.152H64.662V65.638z M64.662,79.364H165.33v9.152H64.662V79.364z M142.542,113.544c10.982,0,19.882,8.856,19.882,19.77
	c0,10.934-8.903,19.79-19.882,19.79c-10.959,0-19.861-8.856-19.861-19.79C122.681,122.402,131.583,113.544,142.542,113.544z"/>
<rect x="95.782" y="15.28" fill="#4289C8" stroke="#FFFFFF" stroke-width="0.75" stroke-miterlimit="10" width="36.563" height="7.87"/>
<rect x="95.782" y="22.606" fill="#4289C8" stroke="#FFFFFF" stroke-width="0.75" stroke-miterlimit="10" width="36.563" height="7.87"/>
<polygon fill="#FFFFFF" points="114.064,19.441 115.092,21.525 117.392,21.859 115.727,23.48 116.121,25.771 114.064,24.69 
	112.007,25.771 112.399,23.48 110.736,21.859 113.035,21.525 "/>
</svg>
