<?xml version="1.0" encoding="utf-8"?>
<!-- Generator: Adobe Illustrator 17.0.0, SVG Export Plug-In . SVG Version: 6.00 Build 0)  -->
<!DOCTYPE svg PUBLIC "-//W3C//DTD SVG 1.1//EN" "http://www.w3.org/Graphics/SVG/1.1/DTD/svg11.dtd">
<svg version="1.1" id="Layer_1" xmlns="http://www.w3.org/2000/svg" xmlns:xlink="http://www.w3.org/1999/xlink" x="0px" y="0px"
	 width="227.941px" height="167.941px" viewBox="0 0 227.941 167.941" enable-background="new 0 0 227.941 167.941"
	 xml:space="preserve">
<g>
	<g>
		<path fill="#438AC9" d="M196.749,32.638v97.117c0,0-27.629-7.768-48.157-3.821c-18.387,3.535-31.918,13.51-34.201,15.272v0.294
			c0,0-0.068-0.054-0.191-0.149c-0.121,0.095-0.189,0.149-0.189,0.149v-0.294c-2.281-1.762-15.812-11.735-34.193-15.272
			c-20.533-3.949-50.867,3.821-50.867,3.821V32.349c-1.774,0.267-3.655,0.55-5.678,0.853v104.623c0,0,33.059-8.507,55.546-4.18
			c22.114,4.253,35.474,17.048,35.474,17.048s13.36-12.795,35.472-17.048c22.492-4.329,54.193,4.18,54.193,4.18V33.653
			C203.961,33.653,201.201,33.186,196.749,32.638z M78.15,116.104c17.982,3.455,31.879,13.864,31.879,13.864V34.419
			c0,0-13.97-10.42-31.993-13.885c-18.244-3.509-42.076,3.423-42.076,3.423v95.548C35.958,119.505,59.866,112.588,78.15,116.104z
			 M189.728,119.855V24.307c0,0-21.845-6.934-40.082-3.423c-18.023,3.463-32.452,13.881-32.452,13.881v95.55
			c0,0,14.35-10.404,32.335-13.865C167.811,112.939,189.728,119.855,189.728,119.855z"/>
	</g>
</g>
</svg>
