<?xml version="1.0" encoding="utf-8"?>
<!-- Generator: Adobe Illustrator 17.0.0, SVG Export Plug-In . SVG Version: 6.00 Build 0)  -->
<!DOCTYPE svg PUBLIC "-//W3C//DTD SVG 1.1//EN" "http://www.w3.org/Graphics/SVG/1.1/DTD/svg11.dtd">
<svg version="1.1" id="Layer_1" xmlns="http://www.w3.org/2000/svg" xmlns:xlink="http://www.w3.org/1999/xlink" x="0px" y="0px"
	 width="227.941px" height="220px" viewBox="0 0 227.941 220" enable-background="new 0 0 227.941 220" xml:space="preserve">
<path fill="#438AC9" d="M142.469,63.278C127.767,45.729,113.88,29.156,113.88,8.295c0-0.655-0.53-1.187-1.19-1.187
	c-0.655,0-1.187,0.532-1.187,1.187c0,20.861-13.883,37.437-28.582,54.984c-15.654,18.686-31.839,38.008-31.839,63.901
	c0,34.044,26.487,59.713,61.608,59.713c35.132,0,61.625-25.668,61.625-59.713C174.316,101.286,158.126,81.964,142.469,63.278z
	 M117.489,169.305c-14.722,0,34.757-20.181,4.883-84.845c-7.589-13.969,4.983-8.999,9.911-3.932
	c14.996,15.336,27.992,28.584,27.992,49.309C160.276,154.206,143.433,169.305,117.489,169.305z"/>
</svg>
