<?xml version="1.0" encoding="utf-8"?>
<!-- Generator: Adobe Illustrator 17.0.0, SVG Export Plug-In . SVG Version: 6.00 Build 0)  -->
<!DOCTYPE svg PUBLIC "-//W3C//DTD SVG 1.1//EN" "http://www.w3.org/Graphics/SVG/1.1/DTD/svg11.dtd">
<svg version="1.1" id="Layer_1" xmlns="http://www.w3.org/2000/svg" xmlns:xlink="http://www.w3.org/1999/xlink" x="0px" y="0px"
	 width="227.941px" height="130.882px" viewBox="0 0 227.941 130.882" enable-background="new 0 0 227.941 130.882"
	 xml:space="preserve">
<path fill="none" d="M90.864,106.909c-0.65,0-1.281-0.078-1.898-0.202C89.583,106.835,90.214,106.909,90.864,106.909z"/>
<path fill="none" d="M86.022,105.589c-0.021-0.012-0.039-0.023-0.058-0.033C85.983,105.568,86.002,105.579,86.022,105.589z"/>
<path fill="none" d="M88.565,106.615c-0.409-0.099-0.8-0.237-1.189-0.385C87.765,106.385,88.159,106.514,88.565,106.615z"/>
<rect x="10.706" y="51.118" fill="#FFC95E" width="73" height="71"/>
<rect x="144.706" y="51.118" fill="#FFC95F" width="71" height="71"/>
<rect x="32.706" y="43.118" fill="#FFC95E" width="28" height="79"/>
<rect x="166.706" y="43.118" fill="#FFC95E" width="28" height="79"/>
<rect x="83.706" y="60.118" fill="#FFC95E" width="61" height="62"/>
<rect x="16.706" y="82.118" fill="#FFFFFF" width="16" height="18"/>
<rect x="60.706" y="82.118" fill="#FFFFFF" width="16" height="18"/>
<rect x="151.706" y="82.118" fill="#FFFFFF" width="15" height="18"/>
<rect x="194.706" y="82.118" fill="#FFFFFF" width="17" height="18"/>
<rect x="113.206" y="82.618" fill="#FFFFFF" stroke="#FFC95F" stroke-miterlimit="10" width="17" height="39"/>
<rect x="97.206" y="82.618" fill="#FFFFFF" stroke="#FFC95F" stroke-miterlimit="10" width="16" height="39"/>
<g>
	<rect x="17.206" y="82.618" fill="none" stroke="#FFC95F" stroke-miterlimit="10" width="6" height="6"/>
	<rect x="23.206" y="82.618" fill="none" stroke="#FFC95F" stroke-miterlimit="10" width="6" height="6"/>
	<rect x="29.206" y="82.618" fill="none" stroke="#FFC95F" stroke-miterlimit="10" width="4" height="6"/>
	<rect x="17.206" y="88.618" fill="none" stroke="#FFC95F" stroke-miterlimit="10" width="6" height="6"/>
	<rect x="23.206" y="88.618" fill="none" stroke="#FFC95F" stroke-miterlimit="10" width="6" height="6"/>
	<rect x="29.206" y="88.618" fill="none" stroke="#FFC95F" stroke-miterlimit="10" width="4" height="6"/>
	<rect x="17.206" y="94.618" fill="none" stroke="#FFC95F" stroke-miterlimit="10" width="6" height="6"/>
	<rect x="23.206" y="94.618" fill="none" stroke="#FFC95F" stroke-miterlimit="10" width="6" height="6"/>
	<rect x="29.206" y="94.618" fill="none" stroke="#FFC95F" stroke-miterlimit="10" width="4" height="6"/>
</g>
<g>
	<rect x="60.206" y="82.618" fill="none" stroke="#FFC95F" stroke-miterlimit="10" width="6" height="6"/>
	<rect x="66.206" y="82.618" fill="none" stroke="#FFC95F" stroke-miterlimit="10" width="6" height="6"/>
	<rect x="72.206" y="82.618" fill="none" stroke="#FFC95F" stroke-miterlimit="10" width="5" height="6"/>
	<rect x="60.206" y="88.618" fill="none" stroke="#FFC95F" stroke-miterlimit="10" width="6" height="6"/>
	<rect x="66.206" y="88.618" fill="none" stroke="#FFC95F" stroke-miterlimit="10" width="6" height="6"/>
	<rect x="72.206" y="88.618" fill="none" stroke="#FFC95F" stroke-miterlimit="10" width="5" height="6"/>
	<rect x="60.206" y="94.618" fill="none" stroke="#FFC95F" stroke-miterlimit="10" width="6" height="6"/>
	<rect x="66.206" y="94.618" fill="none" stroke="#FFC95F" stroke-miterlimit="10" width="6" height="6"/>
	<rect x="72.206" y="94.618" fill="none" stroke="#FFC95F" stroke-miterlimit="10" width="5" height="6"/>
</g>
<g>
	<rect x="151.206" y="82.618" fill="none" stroke="#FFC95F" stroke-miterlimit="10" width="6" height="6"/>
	<rect x="157.206" y="82.618" fill="none" stroke="#FFC95F" stroke-miterlimit="10" width="4" height="6"/>
	<rect x="161.206" y="82.618" fill="none" stroke="#FFC95F" stroke-miterlimit="10" width="6" height="6"/>
	<rect x="151.206" y="88.618" fill="none" stroke="#FFC95F" stroke-miterlimit="10" width="6" height="6"/>
	<rect x="157.206" y="88.618" fill="none" stroke="#FFC95F" stroke-miterlimit="10" width="4" height="6"/>
	<rect x="161.206" y="88.618" fill="none" stroke="#FFC95F" stroke-miterlimit="10" width="6" height="6"/>
	<rect x="151.206" y="94.618" fill="none" stroke="#FFC95F" stroke-miterlimit="10" width="6" height="6"/>
	<rect x="157.206" y="94.618" fill="none" stroke="#FFC95F" stroke-miterlimit="10" width="4" height="6"/>
	<rect x="161.206" y="94.618" fill="none" stroke="#FFC95F" stroke-miterlimit="10" width="6" height="6"/>
</g>
<g>
	<rect x="194.206" y="82.618" fill="none" stroke="#FFC95F" stroke-miterlimit="10" width="6" height="6"/>
	<rect x="200.206" y="82.618" fill="none" stroke="#FFC95F" stroke-miterlimit="10" width="5" height="6"/>
	<rect x="205.206" y="82.618" fill="none" stroke="#FFC95F" stroke-miterlimit="10" width="6" height="6"/>
	<rect x="194.206" y="88.618" fill="none" stroke="#FFC95F" stroke-miterlimit="10" width="6" height="6"/>
	<rect x="200.206" y="88.618" fill="none" stroke="#FFC95F" stroke-miterlimit="10" width="5" height="6"/>
	<rect x="205.206" y="88.618" fill="none" stroke="#FFC95F" stroke-miterlimit="10" width="6" height="6"/>
	<rect x="194.206" y="94.618" fill="none" stroke="#FFC95F" stroke-miterlimit="10" width="6" height="6"/>
	<rect x="200.206" y="94.618" fill="none" stroke="#FFC95F" stroke-miterlimit="10" width="5" height="6"/>
	<rect x="205.206" y="94.618" fill="none" stroke="#FFC95F" stroke-miterlimit="10" width="6" height="6"/>
</g>
<rect x="95.706" y="119.118" fill="#FFC95F" width="37" height="4"/>
<line fill="none" stroke="#FFC95F" stroke-width="4" stroke-linecap="round" stroke-miterlimit="10" x1="45.706" y1="43.118" x2="45.706" y2="15.118"/>
<g>
	<path fill="#FFC95E" d="M44.706,26.008c-4-2.868-8,2.868-12,0c0-3.414,0-6.828,0-10.243c4,2.868,8-2.868,12,0
		C44.706,19.179,44.706,22.593,44.706,26.008z"/>
</g>
</svg>
