<?xml version="1.0" encoding="utf-8"?>
<!-- Generator: Adobe Illustrator 17.0.0, SVG Export Plug-In . SVG Version: 6.00 Build 0)  -->
<!DOCTYPE svg PUBLIC "-//W3C//DTD SVG 1.1//EN" "http://www.w3.org/Graphics/SVG/1.1/DTD/svg11.dtd">
<svg version="1.1" id="Layer_1" xmlns="http://www.w3.org/2000/svg" xmlns:xlink="http://www.w3.org/1999/xlink" x="0px" y="0px"
	 width="203.5px" height="128.618px" viewBox="0 0 203.5 128.618" enable-background="new 0 0 203.5 128.618" xml:space="preserve">
<path fill="none" d="M136.032,30.084c-0.402,0-0.792-0.048-1.174-0.125C135.24,30.038,135.63,30.084,136.032,30.084z"/>
<path fill="none" d="M133.039,29.268c-0.013-0.008-0.024-0.014-0.036-0.02C133.014,29.255,133.026,29.262,133.039,29.268z"/>
<path fill="none" d="M134.61,29.902c-0.253-0.061-0.495-0.146-0.735-0.238C134.116,29.76,134.36,29.84,134.61,29.902z"/>
<path fill="none" d="M89.696,66.71c-0.594,0-1.171-0.071-1.734-0.184C88.526,66.642,89.102,66.71,89.696,66.71z"/>
<path fill="none" d="M85.273,65.504c-0.019-0.011-0.036-0.021-0.053-0.03C85.237,65.485,85.254,65.494,85.273,65.504z"/>
<path fill="none" d="M87.595,66.441c-0.374-0.09-0.731-0.216-1.086-0.351C86.864,66.231,87.225,66.349,87.595,66.441z"/>
<g>
	<path fill="#FFC95E" d="M105.31,57.509c-17.01,0-30.798-3.235-30.798-7.225v9.166c0,3.99,13.788,7.225,30.798,7.225
		s30.798-3.235,30.798-7.225v-9.166C136.108,54.274,122.317,57.509,105.31,57.509z"/>
	<path fill="#FFC95E" d="M105.31,75.841c-17.01,0-30.798-3.235-30.798-7.225v9.166c0,3.99,13.788,7.225,30.798,7.225
		s30.798-3.235,30.798-7.225v-9.166C136.108,72.606,122.317,75.841,105.31,75.841z"/>
	<path fill="#FFC95E" d="M105.31,94.171c-17.01,0-30.798-3.235-30.798-7.225v9.166c0,3.99,13.788,7.225,30.798,7.225
		s30.798-3.235,30.798-7.225v-9.166C136.108,90.936,122.317,94.171,105.31,94.171z"/>
	<path fill="#FFC95E" d="M105.31,112.503c-17.01,0-30.798-3.235-30.798-7.225v9.166c0,3.99,13.788,7.225,30.798,7.225
		s30.798-3.235,30.798-7.225v-9.166C136.108,109.268,122.317,112.503,105.31,112.503z"/>
	<path fill="#FFC95E" d="M105.31,24.729c-17.01,0-30.798,3.235-30.798,7.225v9.166c0,3.99,13.788,7.225,30.798,7.225
		s30.798-3.235,30.798-7.225v-9.166C136.108,27.963,122.317,24.729,105.31,24.729z"/>
	<path fill="#FFC95E" d="M173.476,80.031c-14.489,0-26.235-2.756-26.235-6.154v7.808c0,3.398,11.746,6.154,26.235,6.154
		c14.489,0,26.236-2.756,26.236-6.154v-7.808C199.712,77.277,187.966,80.031,173.476,80.031z"/>
	<path fill="#FFC95E" d="M173.476,95.646c-14.489,0-26.235-2.756-26.235-6.154v7.808c0,3.398,11.746,6.154,26.235,6.154
		c14.489,0,26.236-2.756,26.236-6.154v-7.808C199.712,92.89,187.966,95.646,173.476,95.646z"/>
	<path fill="#FFC95E" d="M173.476,52.108c-14.489,0-26.235,2.756-26.235,6.154v7.807c0,3.398,11.746,6.154,26.235,6.154
		c14.489,0,26.236-2.756,26.236-6.154v-7.807C199.712,54.864,187.966,52.108,173.476,52.108z"/>
	<path fill="#FFC95E" d="M39.356,92.592c-14.489,0-26.235-2.756-26.235-6.154v7.808c0,3.398,11.746,6.154,26.235,6.154
		s26.235-2.756,26.235-6.154v-7.808C65.589,89.836,53.843,92.592,39.356,92.592z"/>
	<path fill="#FFC95E" d="M39.356,64.667c-14.489,0-26.235,2.756-26.235,6.154v7.808c0,3.398,11.746,6.154,26.235,6.154
		s26.235-2.756,26.235-6.154v-7.808C65.589,67.423,53.843,64.667,39.356,64.667z"/>
</g>
</svg>
