<?xml version="1.0" encoding="utf-8"?>
<!-- Generator: Adobe Illustrator 17.0.0, SVG Export Plug-In . SVG Version: 6.00 Build 0)  -->
<!DOCTYPE svg PUBLIC "-//W3C//DTD SVG 1.1//EN" "http://www.w3.org/Graphics/SVG/1.1/DTD/svg11.dtd">
<svg version="1.1" id="Layer_1" xmlns="http://www.w3.org/2000/svg" xmlns:xlink="http://www.w3.org/1999/xlink" x="0px" y="0px"
	 width="227.941px" height="188.235px" viewBox="0 0 227.941 188.235" enable-background="new 0 0 227.941 188.235"
	 xml:space="preserve">
<g>
	<circle fill="#FFC95E" cx="40.55" cy="26.025" r="17.294"/>
	<path fill="#FFC95E" d="M65.355,93.24c3.618,0,5.991-4.22,5.273-9.378l-3.607-25.906c-0.718-5.158-5.567-9.378-10.774-9.378H24.85
		c-5.207,0-10.056,4.22-10.774,9.378l-3.605,25.906c-0.718,5.158,1.655,9.378,5.273,9.378s6.895,4.249,7.282,9.443l3.313,44.355
		c0.387,5.193,4.966,9.443,10.172,9.443h8.077c5.207,0,9.785-4.249,10.172-9.443l3.31-44.355
		C58.458,97.489,61.737,93.24,65.355,93.24z"/>
</g>
<g>
	<circle fill="#FFC95E" cx="110.325" cy="40.108" r="17.294"/>
	<path fill="#FFC95E" d="M92.802,116.765l3.313,44.355c0.387,5.193,4.966,9.443,10.172,9.443h8.077
		c5.207,0,9.785-4.249,10.172-9.443l3.31-44.355c0.387-5.193,3.666-9.443,7.284-9.443c3.618,0,5.991-4.22,5.273-9.378l-3.607-25.906
		c-0.718-5.158-5.567-9.378-10.774-9.378H94.625c-5.207,0-7.946,4.694-8.664,9.852C85.961,72.513,88.494,100.696,92.802,116.765z"/>
</g>
<g>
	<circle fill="#FFC95E" cx="180.1" cy="26.025" r="17.294"/>
	<path fill="#FFC95E" d="M204.905,93.24c3.618,0,5.991-4.22,5.273-9.378l-3.607-25.906c-0.718-5.158-5.567-9.378-10.774-9.378H164.4
		c-5.207,0-10.056,4.22-10.774,9.378l-3.605,25.906c-0.718,5.158,1.655,9.378,5.273,9.378c3.618,0,6.895,4.249,7.282,9.443
		l3.312,44.355c0.387,5.193,4.966,9.443,10.172,9.443h8.077c5.207,0,9.785-4.249,10.172-9.443l3.31-44.355
		C198.008,97.489,201.287,93.24,204.905,93.24z"/>
</g>
<g>
	<path fill="#FFC95E" d="M95.467,77.647H82.002c-3.016,0-5.614-2.111-6.212-5.068l-5.546-27.454
		c-0.693-3.431,1.527-6.77,4.957-7.463c3.43-0.694,6.773,1.351,7.466,4.781l4.52,22.203h8.28c3.5,0,6.337,3,6.337,6.5
		C101.804,74.647,98.967,77.647,95.467,77.647z"/>
</g>
</svg>
