<?xml version="1.0" encoding="utf-8"?>
<!-- Generator: Adobe Illustrator 17.0.0, SVG Export Plug-In . SVG Version: 6.00 Build 0)  -->
<!DOCTYPE svg PUBLIC "-//W3C//DTD SVG 1.1//EN" "http://www.w3.org/Graphics/SVG/1.1/DTD/svg11.dtd">
<svg version="1.1" id="Layer_1" xmlns="http://www.w3.org/2000/svg" xmlns:xlink="http://www.w3.org/1999/xlink" x="0px" y="0px"
	 width="85.616px" height="209.832px" viewBox="0 0 85.616 209.832" enable-background="new 0 0 85.616 209.832"
	 xml:space="preserve">
<g>
	<circle fill="#6FC9C0" cx="42.717" cy="24.561" r="24.561"/>
	<path fill="#6FC9C0" d="M77.945,120.018c5.139,0,8.509-5.993,7.489-13.318l-5.122-36.792c-1.02-7.325-7.906-13.318-15.301-13.318
		H20.421c-7.394,0-14.281,5.993-15.301,13.318L0,106.701c-1.02,7.325,2.35,13.318,7.489,13.318s9.793,6.035,10.343,13.41
		l4.704,62.993c0.55,7.376,7.052,13.41,14.447,13.41h11.471c7.394,0,13.897-6.035,14.447-13.41l4.7-62.993
		C68.151,126.053,72.807,120.018,77.945,120.018z"/>
</g>
</svg>
