<svg id="svg" version="1.1" width="847" height="644" xmlns="http://www.w3.org/2000/svg" xmlns:xlink="http://www.w3.org/1999/xlink" style="display: block;"><g id="svgg"><path id="path0" d="M365.450 3.200 C 365.019 4.167,364.119 6.181,363.450 7.674 C 362.780 9.168,362.024 10.390,361.769 10.390 C 361.513 10.390,361.427 10.708,361.577 11.098 C 361.726 11.488,361.613 11.806,361.326 11.806 C 361.038 11.806,360.803 12.244,360.803 12.779 C 360.803 13.314,360.610 13.632,360.375 13.486 C 360.139 13.341,360.058 13.647,360.194 14.167 C 360.330 14.687,360.220 15.112,359.951 15.112 C 359.682 15.112,359.321 15.750,359.150 16.529 C 358.979 17.308,358.537 17.946,358.168 17.946 C 357.259 17.946,357.318 18.182,358.560 19.518 C 359.144 20.147,360.207 21.329,360.921 22.145 L 362.220 23.629 362.290 51.484 C 362.329 66.804,362.383 79.604,362.409 79.929 C 362.434 80.254,362.222 80.477,361.935 80.425 C 361.625 80.368,361.504 80.798,361.636 81.487 C 361.764 82.157,361.635 82.645,361.330 82.645 C 361.040 82.645,360.803 83.082,360.803 83.617 C 360.803 84.232,360.602 84.465,360.258 84.252 C 359.916 84.041,359.841 84.123,360.056 84.472 C 360.443 85.098,359.378 87.839,358.748 87.839 C 358.524 87.839,358.463 88.158,358.612 88.548 C 358.762 88.937,358.678 89.256,358.427 89.256 C 358.175 89.256,357.969 89.589,357.969 89.995 C 357.969 91.106,355.689 95.868,355.157 95.868 C 354.902 95.868,354.824 96.208,354.983 96.624 C 355.143 97.040,355.080 97.518,354.844 97.686 C 354.608 97.855,354.190 98.630,353.915 99.410 C 353.640 100.189,353.186 100.781,352.907 100.725 C 352.621 100.667,352.505 101.027,352.642 101.551 C 352.780 102.080,352.649 102.479,352.337 102.479 C 352.035 102.479,351.851 102.851,351.927 103.306 C 352.004 103.760,351.808 104.082,351.493 104.020 C 351.172 103.957,351.033 104.203,351.176 104.577 C 351.420 105.211,350.118 108.586,349.435 109.091 C 349.259 109.221,348.965 110.018,348.782 110.862 C 348.599 111.706,348.254 112.397,348.014 112.397 C 347.775 112.397,347.580 112.621,347.580 112.895 C 347.580 113.169,347.140 114.358,346.602 115.538 C 345.529 117.895,345.672 118.968,347.110 119.344 C 347.628 119.480,348.052 119.755,348.052 119.957 C 348.052 120.158,348.634 120.469,349.346 120.647 C 350.058 120.826,350.749 121.115,350.882 121.289 C 351.125 121.607,354.457 123.483,356.431 124.413 C 357.013 124.687,357.491 125.071,357.493 125.266 C 357.495 125.460,357.816 125.620,358.205 125.620 C 358.595 125.620,358.914 125.845,358.914 126.120 C 358.914 126.395,359.108 126.500,359.344 126.354 C 360.033 125.928,362.721 127.672,362.456 128.374 C 362.326 128.720,362.220 136.105,362.220 144.785 L 362.220 160.567 357.497 160.567 L 352.774 160.567 352.774 166.234 L 352.774 171.901 366.588 171.901 L 380.401 171.902 380.308 166.945 C 380.182 160.217,380.383 160.439,374.571 160.638 L 369.775 160.803 369.775 146.517 C 369.776 131.472,369.853 130.960,371.833 132.940 C 372.223 133.329,372.769 133.648,373.048 133.648 C 373.326 133.648,373.554 133.861,373.554 134.120 C 373.554 134.380,373.883 134.593,374.286 134.593 C 375.394 134.593,377.870 135.993,377.583 136.458 C 377.444 136.682,377.756 136.755,378.276 136.619 C 378.804 136.480,379.221 136.604,379.221 136.899 C 379.221 137.189,379.524 137.426,379.895 137.426 C 380.266 137.426,380.904 137.760,381.312 138.168 C 382.105 138.961,383.179 138.363,383.282 137.072 C 383.390 135.722,383.491 135.494,383.875 135.731 C 384.097 135.868,384.179 135.456,384.056 134.815 C 383.927 134.137,384.054 133.648,384.361 133.648 C 384.651 133.648,384.888 133.117,384.888 132.468 C 384.888 131.818,385.094 131.287,385.345 131.287 C 385.597 131.287,385.679 130.965,385.529 130.572 C 385.378 130.180,385.467 129.595,385.726 129.274 C 385.986 128.952,386.349 127.772,386.534 126.650 C 386.720 125.528,387.137 124.507,387.462 124.383 C 387.806 124.251,387.961 123.671,387.832 122.999 C 387.698 122.298,387.832 121.842,388.170 121.842 C 388.515 121.842,388.614 121.479,388.429 120.895 C 388.239 120.297,388.371 119.855,388.785 119.696 C 389.212 119.532,389.370 118.956,389.236 118.046 C 389.110 117.183,389.240 116.647,389.577 116.647 C 389.878 116.647,390.084 116.381,390.034 116.057 C 389.880 115.043,390.658 111.444,391.089 111.178 C 391.315 111.038,391.499 110.299,391.499 109.535 C 391.499 108.771,391.681 108.146,391.904 108.146 C 392.126 108.146,392.330 107.562,392.356 106.848 C 392.439 104.606,393.007 101.319,393.396 100.826 C 393.873 100.224,393.672 84.581,393.173 83.450 C 392.968 82.985,392.922 81.844,393.073 80.917 C 393.265 79.733,393.129 79.012,392.616 78.499 C 392.137 78.020,391.977 77.305,392.152 76.428 C 392.300 75.690,392.214 75.089,391.960 75.089 C 391.707 75.089,391.499 74.357,391.499 73.464 C 391.499 72.570,391.268 71.696,390.986 71.521 C 390.704 71.347,390.577 70.803,390.706 70.313 C 390.834 69.823,390.774 69.421,390.572 69.421 C 390.067 69.421,388.969 65.355,389.321 64.786 C 389.477 64.533,389.307 64.211,388.944 64.072 C 388.580 63.932,388.132 63.113,387.947 62.252 C 387.763 61.390,387.406 60.428,387.154 60.115 C 386.902 59.802,386.833 59.324,387.000 59.053 C 387.168 58.781,387.080 58.560,386.805 58.560 C 386.530 58.560,386.305 58.147,386.305 57.643 C 386.305 57.139,386.108 56.605,385.869 56.457 C 385.629 56.309,385.293 55.552,385.123 54.776 C 384.952 54.000,384.592 53.365,384.323 53.365 C 384.054 53.365,383.944 52.939,384.080 52.420 C 384.216 51.900,384.135 51.594,383.899 51.739 C 383.664 51.885,383.471 51.566,383.471 51.031 C 383.471 50.497,383.236 50.059,382.948 50.059 C 382.661 50.059,382.548 49.740,382.697 49.351 C 382.861 48.923,382.700 48.642,382.290 48.642 C 381.881 48.642,381.720 48.361,381.884 47.934 C 382.034 47.542,381.897 47.226,381.578 47.226 C 381.240 47.226,381.098 46.848,381.237 46.316 C 381.390 45.731,381.272 45.485,380.904 45.626 C 380.376 45.829,379.053 43.818,379.005 42.739 C 378.994 42.479,378.506 41.779,377.922 41.183 C 377.338 40.587,376.860 39.790,376.860 39.412 C 376.860 39.034,376.700 38.723,376.505 38.722 C 376.311 38.720,375.620 37.936,374.970 36.979 C 374.321 36.022,372.887 34.346,371.783 33.256 C 369.585 31.084,368.521 23.975,370.509 24.737 C 370.957 24.910,371.121 24.824,370.931 24.516 C 370.613 24.002,373.504 19.365,374.144 19.363 C 374.689 19.362,374.564 17.570,373.994 17.217 C 373.716 17.046,373.603 16.608,373.743 16.245 C 373.882 15.882,373.842 15.584,373.654 15.584 C 373.107 15.584,372.037 12.822,372.373 12.278 C 372.542 12.006,372.398 11.841,372.054 11.913 C 371.707 11.985,371.458 11.675,371.494 11.216 C 371.530 10.762,371.357 10.390,371.108 10.390 C 370.860 10.390,370.793 9.959,370.960 9.433 C 371.162 8.798,371.066 8.521,370.677 8.607 C 370.354 8.678,369.873 7.993,369.608 7.084 C 369.342 6.175,368.926 5.295,368.682 5.130 C 368.438 4.964,368.384 4.592,368.562 4.303 C 368.741 4.014,368.696 3.778,368.463 3.778 C 368.229 3.778,367.796 3.247,367.500 2.597 C 366.775 1.005,366.376 1.123,365.450 3.200 M156.700 16.472 C 135.215 25.083,140.175 58.796,162.928 58.796 C 189.115 58.796,189.579 16.411,163.400 15.706 C 159.901 15.612,158.427 15.781,156.700 16.472 M261.541 16.472 C 240.055 25.083,245.016 58.796,267.769 58.796 C 293.955 58.796,294.420 16.411,268.241 15.706 C 264.742 15.612,263.267 15.781,261.541 16.472 M51.348 17.651 C 30.691 26.307,35.534 58.654,57.602 59.425 C 80.015 60.208,86.695 27.699,66.116 17.993 C 62.279 16.183,55.239 16.020,51.348 17.651 M169.278 20.982 C 179.530 25.998,182.117 41.139,174.200 49.800 C 160.931 64.319,139.982 46.426,149.181 28.432 C 153.210 20.551,161.850 17.348,169.278 20.982 M274.118 20.982 C 284.371 25.998,286.957 41.139,279.041 49.800 C 265.772 64.319,244.822 46.426,254.022 28.432 C 258.051 20.551,266.691 17.348,274.118 20.982 M64.963 21.995 C 80.711 29.963,75.652 55.490,58.323 55.490 C 41.873 55.490,36.018 31.783,50.246 22.784 C 54.795 19.907,60.257 19.614,64.963 21.995 M378.749 53.601 C 378.749 53.991,378.961 54.309,379.221 54.309 C 379.481 54.309,379.694 54.575,379.696 54.900 C 379.698 55.224,380.015 56.096,380.402 56.838 C 380.788 57.579,380.987 58.376,380.843 58.609 C 380.699 58.841,380.755 59.032,380.967 59.032 C 381.539 59.032,382.643 61.767,382.297 62.327 C 382.133 62.592,382.224 62.810,382.499 62.810 C 382.774 62.810,382.999 63.222,382.999 63.727 C 382.999 64.231,383.230 64.786,383.512 64.960 C 383.795 65.135,383.924 65.665,383.801 66.139 C 383.671 66.634,383.877 67.115,384.285 67.272 C 384.721 67.439,384.900 67.906,384.750 68.483 C 384.614 68.999,384.697 69.421,384.932 69.421 C 385.167 69.421,385.360 69.940,385.360 70.574 C 385.360 71.208,385.585 71.866,385.860 72.036 C 386.135 72.206,386.316 72.803,386.261 73.363 C 386.206 73.922,386.408 74.982,386.709 75.718 C 387.010 76.455,387.130 77.261,386.976 77.510 C 386.822 77.759,386.950 78.271,387.262 78.646 C 387.610 79.065,387.712 79.951,387.526 80.943 C 387.328 81.999,387.414 82.621,387.777 82.742 C 388.486 82.978,388.612 101.159,387.906 101.395 C 387.650 101.480,387.524 102.265,387.626 103.139 C 387.728 104.014,387.579 104.873,387.294 105.049 C 387.010 105.225,386.777 106.100,386.777 106.994 C 386.777 107.887,386.609 108.619,386.404 108.619 C 386.199 108.619,386.040 109.203,386.050 109.917 C 386.060 110.632,385.834 111.173,385.548 111.121 C 385.238 111.065,385.117 111.495,385.249 112.187 C 385.371 112.825,385.230 113.637,384.935 113.992 C 384.640 114.348,384.531 114.982,384.693 115.403 C 384.868 115.859,384.701 116.276,384.281 116.437 C 383.856 116.600,383.671 117.073,383.815 117.625 C 383.947 118.129,383.810 118.836,383.510 119.197 C 383.211 119.558,382.998 120.035,383.038 120.257 C 383.217 121.255,382.955 121.870,382.476 121.574 C 382.124 121.357,382.057 121.579,382.270 122.251 C 382.445 122.800,382.420 123.518,382.216 123.845 C 382.012 124.172,381.804 124.711,381.753 125.042 C 381.262 128.280,379.302 132.240,378.855 130.898 C 378.753 130.593,378.369 130.342,378.001 130.342 C 377.633 130.342,377.332 130.117,377.332 129.842 C 377.332 129.567,377.107 129.481,376.832 129.651 C 376.558 129.821,375.499 129.408,374.481 128.734 C 373.463 128.060,372.428 127.509,372.181 127.509 C 371.934 127.509,371.451 127.243,371.108 126.919 C 370.765 126.594,368.996 125.589,367.178 124.685 C 365.360 123.782,363.802 122.879,363.715 122.678 C 363.628 122.478,363.274 122.314,362.928 122.314 C 362.582 122.314,362.227 122.155,362.141 121.960 C 362.054 121.765,361.175 121.232,360.187 120.775 C 359.199 120.318,358.509 119.753,358.653 119.520 C 358.797 119.287,358.490 119.208,357.970 119.344 C 357.441 119.482,357.025 119.358,357.025 119.063 C 357.025 118.773,356.706 118.536,356.316 118.536 C 355.927 118.536,355.608 118.359,355.608 118.142 C 355.608 117.926,355.336 117.749,355.003 117.749 C 353.104 117.749,351.882 116.156,352.594 114.609 C 352.975 113.782,353.409 112.733,353.558 112.279 C 353.707 111.824,354.017 111.452,354.246 111.452 C 354.476 111.452,354.664 111.015,354.664 110.480 C 354.664 109.945,354.856 109.627,355.092 109.772 C 355.327 109.918,355.409 109.611,355.273 109.092 C 355.135 108.563,355.258 108.146,355.553 108.146 C 355.843 108.146,356.047 107.987,356.005 107.792 C 355.905 107.320,356.369 106.113,357.955 102.715 C 358.683 101.157,359.567 99.191,359.920 98.347 C 360.272 97.503,360.722 96.812,360.918 96.812 C 361.114 96.812,361.275 96.472,361.275 96.057 C 361.275 95.642,361.579 94.632,361.949 93.814 C 362.320 92.996,363.076 91.263,363.628 89.965 C 364.981 86.785,365.706 85.289,366.032 85.006 C 366.181 84.876,366.587 83.741,366.932 82.484 C 367.278 81.226,367.823 80.097,368.144 79.974 C 368.465 79.851,368.619 79.339,368.488 78.836 C 368.356 78.333,368.486 77.922,368.776 77.922 C 369.066 77.922,369.311 77.550,369.319 77.096 C 369.328 76.641,369.746 75.419,370.248 74.380 C 370.750 73.341,371.168 72.219,371.176 71.886 C 371.185 71.553,371.510 71.159,371.898 71.010 C 372.286 70.861,372.478 70.536,372.325 70.288 C 371.970 69.714,373.050 67.060,373.639 67.060 C 373.882 67.060,373.942 66.835,373.772 66.559 C 373.409 65.972,374.428 63.282,375.013 63.282 C 375.233 63.282,375.299 62.985,375.160 62.622 C 375.020 62.258,375.133 61.821,375.411 61.649 C 375.688 61.478,375.915 60.819,375.915 60.185 C 375.915 59.551,376.137 59.032,376.408 59.032 C 376.679 59.032,376.866 58.766,376.824 58.442 C 376.664 57.205,376.879 56.627,377.382 56.938 C 377.731 57.153,377.803 56.940,377.599 56.298 C 377.239 55.161,377.724 52.893,378.327 52.893 C 378.559 52.893,378.749 53.211,378.749 53.601 M137.873 62.550 C 129.958 65.466,123.813 72.838,123.708 79.541 C 123.696 80.339,122.787 84.817,121.688 89.492 L 119.690 97.993 110.948 98.121 L 102.205 98.249 99.446 86.551 C 97.762 79.411,96.365 74.484,95.861 73.908 C 95.406 73.388,94.707 72.326,94.307 71.547 C 93.405 69.788,89.586 66.115,87.335 64.841 C 82.866 62.312,82.734 62.302,57.336 62.443 L 33.766 62.574 30.591 64.078 C 24.266 67.074,19.740 73.192,18.913 79.864 C 18.706 81.529,17.726 86.343,16.733 90.560 L 14.929 98.229 10.534 98.229 L 6.139 98.229 6.139 135.773 L 6.139 173.318 25.200 173.318 L 44.261 173.318 44.514 177.450 C 45.750 197.635,65.748 212.749,85.959 208.773 L 88.773 208.219 90.309 210.013 C 91.154 210.999,92.877 212.763,94.139 213.932 L 96.434 216.057 65.336 216.293 L 34.238 216.529 30.702 217.838 C 19.428 222.012,11.272 231.513,9.406 242.647 C 9.115 244.386,6.985 253.402,4.674 262.682 C 2.363 271.962,0.472 279.878,0.472 280.274 C 0.472 280.904,2.771 280.992,19.362 280.992 C 32.048 280.992,38.253 281.152,38.253 281.480 C 38.253 281.748,37.084 286.629,35.655 292.326 C 34.227 298.023,33.058 303.010,33.058 303.408 C 33.058 304.056,42.253 304.132,120.614 304.132 L 208.170 304.132 207.281 300.708 C 206.792 298.825,206.388 297.231,206.384 297.166 C 206.379 297.102,228.666 297.048,255.911 297.048 L 305.447 297.048 304.091 291.736 C 303.346 288.813,302.731 286.370,302.726 286.305 C 302.720 286.240,324.578 286.187,351.298 286.187 L 399.880 286.187 393.686 261.393 C 389.956 246.461,387.275 236.600,386.945 236.600 C 386.643 236.600,386.169 235.946,385.890 235.146 C 384.370 230.785,378.121 223.632,373.051 220.449 C 365.999 216.021,361.317 214.896,349.908 214.884 L 341.611 214.876 340.480 210.086 C 339.858 207.452,339.023 204.972,338.624 204.575 C 338.225 204.178,337.236 202.668,336.427 201.218 L 334.956 198.583 338.320 195.263 C 355.911 177.898,352.715 145.523,332.349 134.781 L 331.051 134.096 331.051 116.172 L 331.051 98.248 321.275 98.121 L 311.500 97.993 308.630 85.950 C 305.557 73.054,305.137 71.991,301.589 68.150 C 295.842 61.930,295.195 61.814,267.018 61.971 L 243.447 62.102 240.320 63.584 C 233.848 66.650,228.640 73.711,228.549 79.541 C 228.536 80.339,227.627 84.817,226.528 89.492 L 224.530 97.993 215.595 97.993 L 206.660 97.993 203.790 85.950 C 202.212 79.327,200.501 73.174,199.988 72.278 C 197.519 67.962,193.014 64.289,188.161 62.636 C 185.129 61.603,140.650 61.527,137.873 62.550 M186.408 66.356 C 191.296 67.808,195.443 71.647,197.210 76.358 C 197.679 77.608,198.217 78.739,198.405 78.873 C 198.594 79.006,199.627 83.043,200.701 87.845 C 201.775 92.647,202.762 96.948,202.894 97.403 C 203.121 98.185,201.018 98.229,163.400 98.229 C 125.780 98.229,123.680 98.185,123.914 97.403 C 125.159 93.228,127.218 84.093,127.541 81.312 C 128.416 73.780,132.649 68.454,139.450 66.329 C 142.567 65.354,183.115 65.378,186.408 66.356 M291.249 66.356 C 296.137 67.808,300.284 71.647,302.051 76.358 C 302.520 77.608,303.057 78.739,303.246 78.873 C 303.435 79.006,304.468 83.043,305.542 87.845 C 306.616 92.647,307.602 96.948,307.734 97.403 C 307.961 98.185,305.870 98.229,268.477 98.229 C 231.080 98.229,228.993 98.185,229.231 97.403 C 230.386 93.590,232.047 85.437,232.349 82.090 C 233.086 73.951,237.176 68.552,244.291 66.329 C 247.408 65.354,287.956 65.378,291.249 66.356 M81.568 66.828 C 86.456 68.280,90.602 72.120,92.370 76.830 C 92.838 78.080,93.367 79.209,93.545 79.339 C 93.723 79.469,94.637 82.975,95.576 87.131 C 96.516 91.287,97.474 95.484,97.707 96.458 L 98.130 98.229 58.982 98.229 C 27.979 98.229,19.835 98.106,19.835 97.639 C 19.836 97.314,20.384 94.817,21.054 92.090 C 21.724 89.362,22.447 85.177,22.660 82.788 C 23.410 74.398,27.406 69.052,34.610 66.801 C 37.727 65.827,78.275 65.851,81.568 66.828 M327.273 117.170 C 327.273 131.431,327.224 132.311,326.446 131.977 C 320.828 129.560,310.866 128.419,304.841 129.501 L 302.952 129.840 301.299 126.718 C 285.321 96.532,238.382 106.788,235.783 141.032 L 235.527 144.401 232.968 143.270 C 226.700 140.498,217.808 139.178,211.914 140.145 L 209.189 140.592 207.105 137.458 C 189.879 111.546,149.764 119.725,143.741 150.377 L 142.971 154.297 139.738 152.303 C 130.488 146.600,118.621 145.389,107.745 149.038 L 104.274 150.202 102.405 148.514 C 83.186 131.150,50.992 141.487,45.317 166.845 L 44.714 169.540 27.316 169.540 L 9.917 169.540 9.917 135.773 L 9.917 102.007 168.595 102.007 L 327.273 102.007 327.273 117.170 M280.473 114.088 C 287.527 116.426,294.007 121.604,297.486 127.685 C 299.339 130.924,299.346 130.887,296.692 131.940 C 282.459 137.589,273.284 151.528,273.223 167.595 L 273.200 173.915 268.949 173.654 C 264.572 173.385,258.328 171.713,255.814 170.137 C 254.802 169.502,254.184 168.401,253.217 165.512 C 251.471 160.296,248.070 155.066,243.385 150.391 L 239.433 146.449 239.433 143.570 C 239.433 122.426,260.331 107.413,280.473 114.088 M183.502 126.131 C 191.659 127.621,199.167 132.493,203.884 139.358 L 205.373 141.527 202.687 142.608 C 185.963 149.342,176.379 166.620,179.129 185.078 L 179.509 187.629 175.742 187.339 C 170.893 186.965,165.148 185.054,161.455 182.587 L 158.538 180.638 157.464 176.303 C 155.812 169.632,153.483 165.145,148.862 159.729 L 146.738 157.239 147.039 154.000 C 148.716 135.956,165.800 122.899,183.502 126.131 M316.883 133.207 C 344.824 137.720,355.829 171.765,335.816 191.778 C 315.617 211.978,281.600 200.714,277.177 172.362 C 274.789 157.057,283.831 141.284,298.382 135.372 C 300.908 134.345,302.389 133.947,307.202 132.999 C 309.116 132.622,313.900 132.725,316.883 133.207 M84.801 144.082 C 88.886 144.835,93.543 146.777,97.132 149.223 C 101.041 151.889,101.073 151.996,98.430 153.666 C 83.474 163.115,77.466 185.341,85.424 201.781 L 86.743 204.506 85.520 204.851 C 74.969 207.820,60.229 201.672,53.392 191.450 C 38.483 169.158,58.344 139.206,84.801 144.082 M222.432 144.068 C 250.373 148.582,261.378 182.627,241.365 202.640 C 221.166 222.840,187.149 211.576,182.726 183.224 C 180.338 167.919,189.380 152.146,203.931 146.233 C 206.457 145.207,207.938 144.809,212.751 143.861 C 214.665 143.484,219.449 143.587,222.432 144.068 M125.620 151.152 C 153.561 155.665,164.566 189.711,144.553 209.724 C 124.353 229.923,90.337 218.660,85.914 190.308 C 83.526 175.003,92.568 159.230,107.119 153.317 C 109.644 152.291,111.126 151.893,115.939 150.945 C 117.853 150.568,122.636 150.670,125.620 151.152 M260.039 176.175 C 262.285 176.896,264.952 177.289,268.713 177.453 L 274.144 177.688 275.145 180.580 C 275.695 182.170,276.302 183.843,276.494 184.298 C 276.820 185.071,276.138 185.124,265.880 185.124 C 256.077 185.124,254.947 185.045,255.203 184.377 C 255.361 183.966,255.490 181.606,255.490 179.132 C 255.490 175.497,255.615 174.681,256.143 174.884 C 256.502 175.022,258.255 175.603,260.039 176.175 M161.747 187.552 C 165.721 189.643,170.371 190.865,175.600 191.193 L 180.480 191.499 182.064 194.923 L 183.648 198.347 170.168 198.347 C 157.520 198.347,156.708 198.296,157.015 197.521 C 157.711 195.761,158.662 190.448,158.669 188.272 C 158.674 187.017,158.837 186.062,159.032 186.150 C 159.227 186.238,160.449 186.869,161.747 187.552 M281.714 191.753 C 292.667 205.408,313.110 209.784,328.803 201.831 C 331.142 200.646,331.247 200.634,331.897 201.483 C 333.179 203.156,335.277 207.987,335.856 210.599 C 336.175 212.042,336.751 213.542,337.134 213.932 C 337.754 214.561,333.683 214.668,300.557 214.889 C 257.230 215.179,258.298 215.049,249.498 221.081 C 247.330 222.567,247.227 222.525,246.744 219.949 C 246.550 218.915,246.140 218.182,245.756 218.182 C 245.395 218.182,245.100 217.877,245.100 217.504 C 245.100 217.131,243.954 215.113,242.553 213.019 L 240.005 209.213 242.300 207.292 C 246.609 203.684,251.633 196.365,253.140 191.499 C 253.462 190.460,253.816 189.451,253.927 189.256 C 254.038 189.061,259.821 188.902,266.778 188.902 L 279.427 188.902 281.714 191.753 M189.842 205.394 C 201.479 217.031,219.845 220.045,234.345 212.697 L 236.759 211.474 237.647 212.585 C 240.203 215.780,242.555 220.435,243.388 223.948 L 243.692 225.228 206.262 225.388 C 172.184 225.533,168.584 225.622,166.067 226.378 C 162.325 227.504,158.575 229.200,156.024 230.921 C 154.028 232.268,153.646 232.349,149.311 232.349 L 144.714 232.349 143.816 230.815 C 142.616 228.762,137.620 223.573,135.703 222.388 L 134.165 221.438 137.720 219.599 C 144.198 216.246,150.041 210.675,153.691 204.368 L 154.989 202.125 170.781 202.125 L 186.573 202.125 189.842 205.394 M362.689 220.006 C 373.995 224.089,382.213 232.793,384.465 243.070 C 384.795 244.576,385.194 245.915,385.350 246.045 C 385.506 246.175,386.410 249.469,387.359 253.365 C 388.307 257.261,390.347 265.392,391.890 271.434 C 393.434 277.476,394.562 282.492,394.397 282.582 C 394.232 282.671,373.259 282.640,347.791 282.514 L 301.485 282.284 297.260 265.266 C 294.936 255.906,292.816 248.017,292.550 247.736 C 292.284 247.455,291.115 245.529,289.953 243.456 C 283.239 231.480,271.572 225.279,255.735 225.269 L 250.076 225.266 251.894 224.030 C 259.889 218.598,258.680 218.701,312.869 218.807 L 359.622 218.899 362.689 220.006 M106.260 221.220 C 113.122 223.695,120.091 224.428,126.370 223.335 C 130.067 222.691,132.145 223.740,137.190 228.799 L 140.496 232.113 106.257 232.376 C 67.991 232.669,69.981 232.496,62.574 236.169 C 53.131 240.853,45.758 249.976,43.715 259.504 C 42.256 266.313,40.548 273.869,40.113 275.445 L 39.663 277.075 22.624 277.418 C 13.253 277.607,5.482 277.658,5.355 277.532 C 5.229 277.405,5.991 274.041,7.049 270.056 C 8.107 266.071,9.792 259.728,10.794 255.962 C 11.797 252.196,12.775 247.629,12.969 245.814 C 14.305 233.330,24.164 222.684,36.364 220.553 C 37.532 220.349,53.020 220.157,70.781 220.126 L 103.073 220.071 106.260 221.220 M268.372 230.533 C 277.188 233.539,284.257 239.740,287.872 247.637 C 289.082 250.279,289.988 253.431,292.641 264.227 C 293.534 267.863,294.462 271.263,294.701 271.783 C 295.453 273.411,300.262 293.273,299.946 293.444 C 299.781 293.533,278.380 293.503,252.389 293.376 L 205.133 293.145 200.379 273.955 C 195.697 255.051,195.589 254.702,193.130 250.523 C 187.152 240.364,177.657 234.146,165.809 232.633 L 161.275 232.054 164.377 231.011 C 169.855 229.170,170.954 229.133,218.182 229.207 L 264.699 229.280 268.372 230.533 M171.192 237.468 C 182.294 241.177,189.592 248.734,192.939 259.989 C 193.953 263.399,203.070 299.573,203.070 300.187 C 203.070 300.279,165.865 300.354,120.393 300.354 C 41.878 300.354,37.729 300.313,37.956 299.528 C 38.862 296.393,45.561 269.950,45.882 268.241 C 46.102 267.072,46.581 264.495,46.947 262.514 C 49.331 249.620,59.018 239.670,71.955 236.826 C 74.293 236.312,83.841 236.206,121.370 236.276 L 167.887 236.364 171.192 237.468 " stroke="none" fill="#000000" fill-rule="evenodd"></path><path id="path1" d="M365.621 1.065 C 365.351 1.391,364.983 2.241,364.804 2.954 C 364.625 3.667,364.289 4.250,364.057 4.250 C 363.826 4.250,363.636 4.592,363.636 5.009 C 363.636 5.495,363.377 5.669,362.917 5.492 C 362.317 5.262,362.287 5.382,362.736 6.222 C 363.183 7.057,363.154 7.181,362.564 6.955 C 362.031 6.750,361.919 6.928,362.113 7.671 C 362.307 8.414,362.195 8.592,361.661 8.387 C 361.119 8.179,361.002 8.385,361.168 9.252 C 361.509 11.040,362.135 10.607,363.450 7.674 C 364.119 6.181,365.019 4.167,365.450 3.200 C 366.376 1.123,366.775 1.005,367.500 2.597 C 368.178 4.085,368.660 4.099,368.939 2.641 C 369.094 1.826,368.976 1.572,368.521 1.747 C 368.152 1.888,367.887 1.673,367.887 1.231 C 367.887 0.329,366.327 0.214,365.621 1.065 M369.836 5.620 C 369.349 5.928,369.300 6.366,369.639 7.383 C 370.153 8.924,370.747 9.009,371.263 7.615 C 371.543 6.858,371.459 6.720,370.856 6.951 C 370.261 7.180,370.154 7.021,370.364 6.219 C 370.511 5.656,370.599 5.198,370.558 5.202 C 370.517 5.206,370.193 5.394,369.836 5.620 M372.019 10.715 C 371.020 10.976,371.025 10.854,371.935 12.678 C 372.828 14.467,372.910 14.490,373.189 13.030 C 373.352 12.176,373.234 11.959,372.717 12.157 C 372.147 12.376,372.122 12.245,372.571 11.406 C 372.870 10.847,373.054 10.414,372.980 10.444 C 372.906 10.475,372.473 10.596,372.019 10.715 M359.864 12.762 C 360.205 13.398,360.208 13.695,359.875 13.695 C 359.606 13.695,359.386 14.037,359.386 14.454 C 359.386 14.907,359.122 15.112,358.731 14.962 C 358.259 14.781,358.148 14.987,358.335 15.699 C 358.532 16.453,358.419 16.621,357.863 16.408 C 357.320 16.200,357.193 16.361,357.369 17.037 C 357.718 18.371,358.762 18.144,359.136 16.652 C 359.315 15.940,359.640 15.247,359.858 15.112 C 360.708 14.587,360.897 12.416,360.119 12.117 C 359.494 11.877,359.450 11.988,359.864 12.762 M373.554 16.501 C 373.554 16.745,373.766 17.077,374.026 17.237 C 374.598 17.591,374.655 19.221,374.103 19.441 C 372.537 20.065,370.401 24.334,371.453 24.737 C 371.932 24.921,372.069 24.829,371.848 24.472 C 371.632 24.123,371.757 24.019,372.192 24.186 C 372.682 24.374,372.870 24.098,372.860 23.204 C 372.850 22.343,373.081 21.977,373.611 22.015 C 374.114 22.052,374.304 21.793,374.165 21.259 C 374.048 20.813,374.249 20.150,374.612 19.787 C 375.583 18.815,375.980 17.006,375.153 17.323 C 374.762 17.473,374.498 17.269,374.498 16.816 C 374.498 16.398,374.286 16.057,374.026 16.057 C 373.766 16.057,373.554 16.257,373.554 16.501 M357.497 19.277 C 357.497 19.490,358.049 20.144,358.723 20.731 C 359.522 21.425,359.867 22.114,359.712 22.705 C 359.576 23.223,359.671 23.492,359.932 23.331 C 360.184 23.175,360.802 23.420,361.305 23.876 C 362.609 25.056,362.475 23.825,361.156 22.506 C 360.571 21.921,359.716 20.868,359.256 20.166 C 358.456 18.945,357.497 18.461,357.497 19.277 M158.831 20.014 C 146.332 24.103,142.860 41.815,152.767 50.947 C 165.576 62.753,184.089 47.368,177.613 30.300 C 174.643 22.473,165.919 17.695,158.831 20.014 M263.671 20.014 C 251.173 24.103,247.701 41.815,257.608 50.947 C 270.416 62.753,288.929 47.368,282.453 30.300 C 279.483 22.473,270.759 17.695,263.671 20.014 M54.073 20.936 C 36.107 26.856,39.629 55.490,58.323 55.490 C 75.652 55.490,80.711 29.963,64.963 21.995 C 61.828 20.409,57.075 19.947,54.073 20.936 M369.776 27.876 C 369.776 31.247,369.791 31.288,371.783 33.256 C 372.887 34.346,374.321 36.022,374.970 36.979 C 375.620 37.936,376.311 38.720,376.505 38.722 C 376.700 38.723,376.860 39.011,376.860 39.361 C 376.860 40.836,378.948 42.479,379.382 41.346 C 379.558 40.889,379.418 40.749,378.961 40.925 C 378.552 41.081,378.276 40.904,378.276 40.486 C 378.276 40.101,377.943 39.508,377.535 39.170 C 377.127 38.832,376.888 38.196,377.002 37.758 C 377.138 37.240,376.943 36.980,376.445 37.017 C 376.001 37.049,375.704 36.740,375.738 36.283 C 375.773 35.820,375.546 35.590,375.191 35.727 C 374.520 35.984,373.795 34.286,374.256 33.540 C 374.416 33.281,374.260 33.179,373.910 33.313 C 372.496 33.856,371.248 31.554,371.099 28.132 C 370.895 23.469,369.776 23.252,369.776 27.876 M378.749 42.716 C 378.749 42.946,379.640 44.518,380.463 45.738 C 380.525 45.829,380.824 45.749,381.129 45.561 C 381.434 45.373,381.501 45.086,381.278 44.923 C 381.056 44.761,380.646 44.216,380.368 43.712 C 379.876 42.821,378.749 42.128,378.749 42.716 M382.263 47.919 C 381.485 48.507,381.463 48.614,382.122 48.627 C 382.549 48.636,383.020 48.323,383.170 47.934 C 383.507 47.054,383.408 47.052,382.263 47.919 M384.034 50.465 C 383.395 50.870,383.709 53.365,384.398 53.365 C 384.592 53.365,384.945 54.039,385.181 54.863 C 385.636 56.450,386.777 57.264,386.777 56.002 C 386.777 55.590,386.604 55.254,386.393 55.254 C 386.181 55.254,385.717 54.510,385.360 53.601 C 385.003 52.692,384.531 51.948,384.311 51.948 C 384.090 51.948,384.138 51.523,384.416 51.004 C 384.976 49.956,384.933 49.895,384.034 50.465 M377.560 54.343 C 377.214 55.923,377.623 56.784,378.243 55.780 C 378.738 54.979,379.423 55.933,379.051 56.905 C 378.877 57.356,379.032 57.477,379.536 57.283 C 380.151 57.047,380.188 57.162,379.756 57.969 C 379.303 58.816,379.356 58.908,380.173 58.694 C 381.168 58.434,381.395 57.847,380.674 57.401 C 380.434 57.253,380.095 56.482,379.921 55.687 C 379.721 54.779,379.377 54.330,378.993 54.477 C 378.583 54.634,378.461 54.413,378.621 53.802 C 378.752 53.302,378.638 52.893,378.369 52.893 C 378.099 52.893,377.736 53.545,377.560 54.343 M376.690 57.374 C 376.536 57.777,376.795 58.273,377.303 58.544 C 378.048 58.943,378.146 58.870,377.937 58.072 C 377.612 56.830,377.025 56.502,376.690 57.374 M386.895 56.983 C 386.226 57.253,386.083 58.560,386.722 58.560 C 386.951 58.560,387.250 58.135,387.386 57.615 C 387.522 57.096,387.600 56.687,387.559 56.708 C 387.518 56.728,387.220 56.852,386.895 56.983 M387.503 58.724 C 386.906 59.161,386.766 59.569,387.059 60.023 C 387.293 60.387,387.700 61.412,387.962 62.300 C 388.544 64.272,389.415 64.674,389.714 63.109 C 389.873 62.276,389.757 62.020,389.301 62.195 C 388.896 62.350,388.666 62.087,388.666 61.472 C 388.666 60.940,388.453 60.373,388.192 60.212 C 387.877 60.017,387.883 59.612,388.209 59.003 C 388.789 57.919,388.669 57.872,387.503 58.724 M375.915 59.926 C 375.915 60.418,376.201 60.929,376.550 61.063 C 377.004 61.238,377.123 60.984,376.967 60.169 C 376.710 58.823,375.915 58.639,375.915 59.926 M380.530 60.169 C 380.374 60.984,380.493 61.238,380.947 61.063 C 381.317 60.922,381.582 61.137,381.582 61.579 C 381.582 61.996,381.795 62.338,382.054 62.338 C 382.679 62.338,382.650 61.847,381.936 60.310 C 381.205 58.736,380.812 58.697,380.530 60.169 M375.285 61.708 C 374.742 62.251,374.941 62.810,375.679 62.810 C 376.068 62.810,376.387 62.491,376.387 62.102 C 376.387 61.364,375.829 61.165,375.285 61.708 M382.054 63.490 C 382.054 63.865,382.267 64.302,382.527 64.463 C 382.786 64.623,382.999 65.167,382.999 65.671 C 382.999 66.175,383.211 66.588,383.471 66.588 C 383.731 66.588,383.943 66.282,383.943 65.907 C 383.943 65.533,383.731 65.096,383.471 64.935 C 383.211 64.775,382.999 64.231,382.999 63.727 C 382.999 63.222,382.786 62.810,382.527 62.810 C 382.267 62.810,382.054 63.116,382.054 63.490 M374.102 64.485 C 373.429 65.961,373.407 66.588,374.026 66.588 C 374.286 66.588,374.498 66.246,374.498 65.829 C 374.498 65.388,374.764 65.172,375.133 65.314 C 375.587 65.488,375.706 65.234,375.550 64.420 C 375.270 62.955,374.789 62.977,374.102 64.485 M389.138 65.234 C 389.138 66.316,390.244 69.421,390.630 69.421 C 391.191 69.421,391.126 67.177,390.555 66.824 C 390.295 66.664,390.083 66.120,390.083 65.616 C 390.083 65.111,389.870 64.699,389.610 64.699 C 389.351 64.699,389.138 64.940,389.138 65.234 M139.450 66.329 C 132.649 68.454,128.416 73.780,127.541 81.312 C 127.218 84.093,125.159 93.228,123.914 97.403 C 123.680 98.185,125.780 98.229,163.400 98.229 C 201.018 98.229,203.121 98.185,202.894 97.403 C 202.762 96.948,201.775 92.647,200.701 87.845 C 199.627 83.043,198.594 79.006,198.405 78.873 C 198.217 78.739,197.679 77.608,197.210 76.358 C 195.443 71.647,191.296 67.808,186.408 66.356 C 183.115 65.378,142.567 65.354,139.450 66.329 M244.291 66.329 C 237.176 68.552,233.086 73.951,232.349 82.090 C 232.047 85.437,230.386 93.590,229.231 97.403 C 228.993 98.185,231.080 98.229,268.477 98.229 C 305.870 98.229,307.961 98.185,307.734 97.403 C 307.602 96.948,306.616 92.647,305.542 87.845 C 304.468 83.043,303.435 79.006,303.246 78.873 C 303.057 78.739,302.520 77.608,302.051 76.358 C 300.284 71.647,296.137 67.808,291.249 66.356 C 287.956 65.378,247.408 65.354,244.291 66.329 M34.610 66.801 C 27.406 69.052,23.410 74.398,22.660 82.788 C 22.447 85.177,21.724 89.362,21.054 92.090 C 20.384 94.817,19.836 97.314,19.835 97.639 C 19.835 98.106,27.979 98.229,58.982 98.229 L 98.130 98.229 97.707 96.458 C 97.474 95.484,96.516 91.287,95.576 87.131 C 94.637 82.975,93.723 79.469,93.545 79.339 C 93.367 79.209,92.838 78.080,92.370 76.830 C 90.602 72.120,86.456 68.280,81.568 66.828 C 78.275 65.851,37.727 65.827,34.610 66.801 M372.685 68.263 C 371.976 69.820,371.994 70.210,372.792 70.516 C 373.264 70.697,373.375 70.491,373.188 69.779 C 372.994 69.036,373.106 68.858,373.640 69.063 C 374.182 69.271,374.299 69.065,374.133 68.198 C 373.853 66.733,373.372 66.755,372.685 68.263 M383.372 68.157 C 383.194 69.084,383.318 69.250,384.044 69.060 C 384.533 68.932,384.870 68.500,384.793 68.101 C 384.560 66.902,383.604 66.939,383.372 68.157 M384.322 70.789 C 384.177 71.779,384.293 72.091,384.741 71.919 C 385.477 71.637,385.501 71.824,384.919 73.352 C 384.535 74.364,384.595 74.481,385.392 74.273 C 386.349 74.022,386.643 72.520,385.832 72.019 C 385.573 71.858,385.360 71.208,385.360 70.574 C 385.360 68.965,384.566 69.129,384.322 70.789 M390.638 70.681 C 390.868 71.866,391.972 72.029,391.972 70.878 C 391.972 70.298,391.667 69.894,391.229 69.894 C 390.789 69.894,390.548 70.215,390.638 70.681 M371.344 71.665 C 371.184 72.119,370.660 73.383,370.178 74.472 C 369.697 75.562,369.303 76.784,369.303 77.188 C 369.303 77.592,369.091 77.922,368.831 77.922 C 368.571 77.922,368.359 78.241,368.359 78.630 C 368.359 79.020,368.571 79.339,368.831 79.339 C 369.091 79.339,369.303 78.997,369.303 78.580 C 369.303 78.139,369.569 77.923,369.938 78.065 C 370.393 78.239,370.511 77.985,370.355 77.171 C 370.221 76.466,370.360 76.033,370.720 76.033 C 371.077 76.033,371.203 75.654,371.046 75.051 C 370.867 74.367,370.977 74.142,371.410 74.308 C 371.843 74.474,371.952 74.248,371.771 73.557 C 371.577 72.814,371.689 72.636,372.223 72.841 C 372.765 73.049,372.882 72.843,372.717 71.976 C 372.462 70.644,371.759 70.485,371.344 71.665 M392.090 72.568 C 391.424 72.836,391.270 75.089,391.918 75.089 C 392.148 75.089,392.430 74.451,392.545 73.672 C 392.659 72.893,392.736 72.272,392.716 72.292 C 392.696 72.313,392.414 72.437,392.090 72.568 M385.759 76.422 C 385.597 78.125,385.664 78.265,386.437 77.851 C 387.046 77.525,387.204 77.093,386.983 76.358 C 386.416 74.482,385.942 74.507,385.759 76.422 M392.701 75.723 C 392.061 76.191,391.915 76.689,392.147 77.612 C 392.609 79.454,393.263 79.141,393.469 76.978 C 393.568 75.939,393.631 75.089,393.609 75.089 C 393.587 75.089,393.178 75.374,392.701 75.723 M386.777 79.783 C 386.777 80.578,386.989 81.228,387.249 81.228 C 387.509 81.228,387.721 80.709,387.721 80.075 C 387.721 79.441,387.509 78.791,387.249 78.630 C 386.974 78.460,386.777 78.940,386.777 79.783 M361.338 79.929 C 361.761 80.719,361.729 80.850,361.168 80.634 C 360.650 80.436,360.532 80.653,360.695 81.507 C 360.955 82.865,361.747 83.032,361.747 81.728 C 361.747 81.224,361.960 80.680,362.220 80.519 C 362.974 80.053,362.768 79.469,361.756 79.204 C 360.938 78.990,360.885 79.083,361.338 79.929 M367.406 81.013 C 366.464 83.490,366.386 84.400,367.090 84.670 C 367.600 84.866,367.713 84.679,367.523 83.952 C 367.359 83.327,367.449 83.082,367.768 83.280 C 368.080 83.473,368.182 83.252,368.038 82.699 C 367.909 82.208,368.035 81.664,368.318 81.489 C 368.968 81.087,368.991 79.811,368.347 79.811 C 368.081 79.811,367.658 80.352,367.406 81.013 M392.916 81.908 C 392.916 82.802,393.129 83.665,393.388 83.825 C 393.674 84.002,393.861 83.358,393.861 82.200 C 393.861 81.146,393.648 80.283,393.388 80.283 C 393.129 80.283,392.916 81.015,392.916 81.908 M359.864 83.600 C 360.205 84.236,360.208 84.534,359.875 84.534 C 359.606 84.534,359.386 84.875,359.386 85.293 C 359.386 85.734,359.121 85.950,358.751 85.808 C 358.297 85.633,358.178 85.887,358.334 86.702 C 358.641 88.306,359.040 88.123,359.983 85.947 C 360.986 83.632,360.998 83.293,360.084 82.942 C 359.497 82.717,359.456 82.838,359.864 83.600 M387.249 84.573 C 387.249 85.738,387.450 86.434,387.757 86.332 C 388.036 86.239,388.249 86.009,388.229 85.821 C 388.210 85.632,388.194 84.841,388.194 84.061 C 388.194 83.282,387.981 82.645,387.721 82.645 C 387.462 82.645,387.249 83.512,387.249 84.573 M365.101 86.541 C 363.428 90.465,362.571 92.441,361.949 93.814 C 361.101 95.687,361.103 96.173,361.959 96.502 C 362.405 96.673,362.557 96.537,362.394 96.113 C 362.130 95.425,363.510 92.068,364.271 91.547 C 364.517 91.378,364.579 90.877,364.408 90.432 C 364.189 89.860,364.291 89.697,364.758 89.877 C 365.231 90.058,365.348 89.859,365.168 89.173 C 365.030 88.646,365.144 88.075,365.420 87.904 C 366.063 87.507,366.705 85.006,366.164 85.006 C 365.940 85.006,365.461 85.697,365.101 86.541 M393.666 92.115 C 393.714 95.765,393.883 98.881,394.043 99.041 C 394.202 99.200,394.333 96.214,394.333 92.405 C 394.333 88.595,394.163 85.478,393.956 85.478 C 393.749 85.478,393.618 88.465,393.666 92.115 M356.918 90.316 C 357.122 91.097,357.010 91.241,356.381 90.999 C 355.698 90.737,355.662 90.836,356.124 91.700 C 356.572 92.535,356.542 92.659,355.953 92.433 C 355.419 92.228,355.307 92.406,355.501 93.149 C 355.696 93.892,355.583 94.070,355.049 93.865 C 354.507 93.657,354.390 93.863,354.556 94.730 C 354.893 96.493,355.517 96.095,356.795 93.301 C 358.151 90.337,358.209 89.921,357.314 89.578 C 356.842 89.397,356.732 89.603,356.918 90.316 M388.335 92.562 C 388.335 93.991,388.424 94.575,388.532 93.861 C 388.640 93.146,388.640 91.978,388.532 91.263 C 388.424 90.549,388.335 91.133,388.335 92.562 M354.191 97.099 C 354.191 97.552,353.927 97.757,353.536 97.607 C 353.064 97.425,352.954 97.631,353.140 98.344 C 353.340 99.111,353.228 99.267,352.638 99.041 C 352.022 98.804,351.951 98.945,352.262 99.788 C 352.806 101.256,353.409 101.077,353.935 99.292 C 354.183 98.447,354.555 97.757,354.761 97.757 C 354.967 97.757,355.136 97.438,355.136 97.048 C 355.136 96.659,354.923 96.340,354.664 96.340 C 354.404 96.340,354.191 96.682,354.191 97.099 M359.920 98.347 C 359.231 99.995,356.709 105.498,356.030 106.834 C 355.727 107.430,355.864 107.778,356.547 108.143 C 357.292 108.542,357.424 108.505,357.212 107.954 C 356.938 107.240,358.296 103.888,359.076 103.353 C 359.322 103.185,359.384 102.683,359.213 102.238 C 358.994 101.666,359.096 101.504,359.563 101.683 C 360.037 101.865,360.153 101.665,359.973 100.979 C 359.836 100.452,359.949 99.882,360.225 99.711 C 360.869 99.313,361.510 96.812,360.969 96.812 C 360.745 96.812,360.272 97.503,359.920 98.347 M387.249 100.079 C 387.249 100.880,387.462 101.535,387.721 101.535 C 387.981 101.535,388.194 101.110,388.194 100.590 C 388.194 100.071,388.210 99.492,388.229 99.303 C 388.249 99.115,388.036 98.885,387.757 98.792 C 387.468 98.696,387.249 99.250,387.249 100.079 M393.261 100.876 C 392.677 101.459,392.880 104.253,393.523 104.500 C 393.967 104.671,394.085 104.270,393.961 103.016 C 393.733 100.696,393.661 100.476,393.261 100.876 M9.917 135.773 L 9.917 169.540 27.316 169.540 L 44.714 169.540 45.317 166.845 C 50.992 141.487,83.186 131.150,102.405 148.514 L 104.274 150.202 107.745 149.038 C 118.621 145.389,130.488 146.600,139.738 152.303 L 142.971 154.297 143.741 150.377 C 149.764 119.725,189.879 111.546,207.105 137.458 L 209.189 140.592 211.914 140.145 C 217.808 139.178,226.700 140.498,232.968 143.270 L 235.527 144.401 235.783 141.032 C 238.382 106.788,285.321 96.532,301.299 126.718 L 302.952 129.840 304.841 129.501 C 310.866 128.419,320.828 129.560,326.446 131.977 C 327.224 132.311,327.273 131.431,327.273 117.170 L 327.273 102.007 168.595 102.007 L 9.917 102.007 9.917 135.773 M387.131 102.277 C 386.936 102.475,386.777 103.281,386.777 104.069 C 386.777 105.094,386.922 105.357,387.286 104.993 C 387.566 104.713,387.725 103.906,387.640 103.200 C 387.555 102.494,387.326 102.079,387.131 102.277 M350.905 103.460 C 351.379 104.345,351.355 104.468,350.758 104.239 C 350.225 104.035,350.112 104.213,350.306 104.956 C 350.494 105.674,350.383 105.875,349.899 105.692 C 349.403 105.503,349.214 105.906,349.162 107.265 C 349.075 109.494,349.497 109.597,350.357 107.556 C 350.712 106.712,351.280 105.436,351.618 104.720 C 352.168 103.554,352.134 103.367,351.287 102.914 C 350.416 102.448,350.386 102.491,350.905 103.460 M392.258 105.588 C 391.808 106.762,391.910 107.076,392.824 107.315 C 393.529 107.499,393.643 107.304,393.479 106.189 C 393.261 104.704,392.703 104.429,392.258 105.588 M385.749 107.019 C 385.852 107.899,386.125 108.619,386.356 108.619 C 387.018 108.619,386.847 105.913,386.170 105.653 C 385.728 105.484,385.613 105.857,385.749 107.019 M354.961 109.209 C 354.555 110.724,354.582 110.848,355.383 111.155 C 355.983 111.385,356.013 111.264,355.564 110.425 C 355.117 109.590,355.146 109.466,355.736 109.692 C 356.255 109.892,356.382 109.721,356.208 109.056 C 355.889 107.835,355.310 107.906,354.961 109.209 M391.499 109.355 C 391.499 110.040,391.704 110.437,391.972 110.272 C 392.231 110.111,392.444 109.567,392.444 109.063 C 392.444 108.559,392.231 108.146,391.972 108.146 C 391.712 108.146,391.499 108.690,391.499 109.355 M347.882 109.801 C 348.021 110.165,347.961 110.738,347.747 111.075 C 347.533 111.412,347.326 111.795,347.287 111.924 C 346.777 113.627,346.465 114.286,346.169 114.286 C 345.729 114.286,344.801 117.930,344.886 119.328 C 344.921 119.893,345.106 120.259,345.298 120.140 C 346.007 119.701,348.108 120.542,347.868 121.168 C 347.714 121.569,347.876 121.698,348.318 121.529 C 348.698 121.383,349.325 121.526,349.711 121.847 C 350.097 122.167,350.413 122.271,350.413 122.078 C 350.413 121.884,350.742 121.999,351.143 122.332 C 351.545 122.665,351.762 123.227,351.626 123.581 C 351.427 124.099,351.576 124.120,352.384 123.687 C 353.220 123.240,353.344 123.269,353.118 123.859 C 352.913 124.392,353.091 124.504,353.834 124.310 C 354.553 124.122,354.753 124.233,354.569 124.717 C 354.382 125.206,354.739 125.393,355.906 125.419 C 357.751 125.460,357.929 125.119,356.431 124.413 C 354.457 123.483,351.125 121.607,350.882 121.289 C 350.749 121.115,350.058 120.826,349.346 120.647 C 348.634 120.469,348.052 120.158,348.052 119.957 C 348.052 119.755,347.628 119.480,347.110 119.344 C 345.672 118.968,345.529 117.895,346.602 115.538 C 347.140 114.358,347.580 113.187,347.580 112.934 C 347.580 112.682,347.776 112.405,348.017 112.318 C 348.857 112.016,349.119 109.711,348.347 109.415 C 347.863 109.229,347.711 109.355,347.882 109.801 M384.973 110.153 C 385.056 110.738,385.336 111.216,385.596 111.216 C 385.856 111.216,386.136 110.738,386.219 110.153 C 386.323 109.422,386.129 109.091,385.596 109.091 C 385.064 109.091,384.869 109.422,384.973 110.153 M390.833 111.570 C 389.678 115.707,389.678 115.706,390.511 116.151 C 391.214 116.528,391.299 116.396,391.124 115.201 C 391.002 114.375,391.133 113.813,391.446 113.813 C 391.735 113.813,391.972 113.176,391.972 112.397 C 391.972 111.005,391.156 110.413,390.833 111.570 M352.989 113.691 C 351.902 116.329,351.856 116.080,353.628 117.202 L 355.038 118.094 354.969 116.974 C 354.918 116.154,354.677 115.911,354.073 116.069 C 353.522 116.213,353.247 116.014,353.247 115.471 C 353.247 114.936,353.493 114.752,353.966 114.933 C 354.566 115.163,354.596 115.043,354.147 114.203 C 353.704 113.376,353.731 113.245,354.299 113.463 C 354.816 113.661,354.934 113.444,354.771 112.590 C 354.452 110.919,354.023 111.184,352.989 113.691 M384.321 112.913 C 384.431 113.663,384.710 114.159,384.941 114.017 C 385.581 113.621,385.440 112.056,384.741 111.788 C 384.293 111.616,384.177 111.928,384.321 112.913 M265.087 112.884 C 250.443 115.516,239.433 128.686,239.433 143.570 L 239.433 146.449 243.385 150.391 C 248.070 155.066,251.471 160.296,253.217 165.512 C 254.184 168.401,254.802 169.502,255.814 170.137 C 258.328 171.713,264.572 173.385,268.949 173.654 L 273.200 173.915 273.223 167.595 C 273.284 151.528,282.459 137.589,296.692 131.940 C 299.346 130.887,299.339 130.924,297.486 127.685 C 291.363 116.982,277.506 110.652,265.087 112.884 M383.363 115.507 C 383.487 116.156,383.815 116.611,384.091 116.519 C 384.992 116.219,384.965 115.305,384.041 114.810 C 383.245 114.384,383.164 114.467,383.363 115.507 M389.138 117.828 C 389.138 118.477,389.351 119.008,389.610 119.008 C 389.870 119.008,390.083 118.477,390.083 117.828 C 390.083 117.178,389.870 116.647,389.610 116.647 C 389.351 116.647,389.138 117.178,389.138 117.828 M356.434 117.445 C 355.425 117.709,355.335 118.536,356.316 118.536 C 356.706 118.536,357.025 118.697,357.025 118.894 C 357.025 119.091,358.188 119.782,359.609 120.429 C 361.031 121.076,362.200 121.765,362.207 121.960 C 362.214 122.155,362.521 122.314,362.889 122.314 C 363.257 122.314,363.628 122.473,363.715 122.668 C 363.856 122.985,369.530 126.092,369.968 126.092 C 370.066 126.092,370.265 125.784,370.409 125.408 C 370.585 124.950,370.445 124.811,369.988 124.986 C 369.611 125.130,369.303 125.030,369.303 124.763 C 369.303 124.496,368.651 124.135,367.853 123.960 C 366.845 123.738,366.484 123.431,366.667 122.953 C 366.813 122.575,366.731 122.389,366.486 122.540 C 365.663 123.049,363.563 122.242,363.839 121.523 C 363.984 121.145,363.890 120.976,363.627 121.139 C 362.877 121.603,361.183 120.874,361.442 120.200 C 361.605 119.775,361.373 119.667,360.688 119.846 C 359.906 120.050,359.763 119.938,360.004 119.309 C 360.266 118.626,360.167 118.590,359.304 119.052 C 358.468 119.499,358.344 119.470,358.571 118.881 C 358.775 118.347,358.597 118.235,357.854 118.429 C 357.077 118.632,356.930 118.520,357.166 117.904 C 357.332 117.472,357.421 117.144,357.364 117.174 C 357.307 117.204,356.889 117.326,356.434 117.445 M382.999 118.328 C 382.999 119.013,383.203 119.410,383.471 119.244 C 383.731 119.084,383.943 118.540,383.943 118.036 C 383.943 117.532,383.731 117.119,383.471 117.119 C 383.211 117.119,382.999 117.663,382.999 118.328 M381.922 120.441 C 382.246 121.682,382.833 122.010,383.168 121.138 C 383.322 120.735,383.063 120.240,382.555 119.968 C 381.810 119.569,381.713 119.642,381.922 120.441 M388.508 119.795 C 387.971 120.333,388.158 120.845,389.069 121.332 C 389.829 121.739,389.915 121.648,389.722 120.641 C 389.500 119.481,389.101 119.203,388.508 119.795 M387.721 122.814 C 387.721 123.349,387.934 123.655,388.194 123.495 C 388.453 123.334,388.666 122.897,388.666 122.522 C 388.666 122.148,388.453 121.842,388.194 121.842 C 387.934 121.842,387.721 122.279,387.721 122.814 M381.582 123.309 C 381.582 123.936,381.353 124.216,380.963 124.066 C 380.510 123.893,380.400 124.217,380.555 125.272 C 380.727 126.445,380.626 126.661,380.014 126.426 C 379.379 126.182,379.334 126.328,379.727 127.361 C 380.216 128.648,379.892 129.540,379.290 128.565 C 379.093 128.247,378.937 128.728,378.937 129.649 C 378.937 130.580,379.151 131.231,379.427 131.140 C 379.970 130.959,382.053 125.099,381.755 124.590 C 381.651 124.413,381.783 124.135,382.047 123.972 C 382.666 123.589,382.672 122.314,382.054 122.314 C 381.795 122.314,381.582 122.762,381.582 123.309 M387.058 124.602 C 386.922 124.822,386.669 125.889,386.496 126.974 C 386.322 128.059,385.996 129.061,385.770 129.200 C 385.036 129.654,385.338 130.699,386.273 130.943 C 387.061 131.149,387.128 131.030,386.763 130.070 C 386.504 129.388,386.516 128.851,386.795 128.678 C 387.045 128.524,387.249 127.962,387.249 127.430 C 387.249 126.827,387.482 126.553,387.869 126.701 C 388.317 126.873,388.432 126.560,388.287 125.571 C 388.091 124.232,387.550 123.806,387.058 124.602 M371.311 125.460 C 370.356 125.846,370.633 126.945,371.777 127.308 C 372.358 127.493,373.637 128.176,374.620 128.826 C 375.602 129.476,376.539 129.876,376.700 129.715 C 377.114 129.301,375.933 127.981,375.149 127.981 C 374.791 127.981,374.498 127.775,374.498 127.524 C 374.498 127.272,374.143 127.203,373.708 127.370 C 373.126 127.593,372.992 127.479,373.200 126.936 C 373.416 126.373,373.250 126.260,372.494 126.458 C 371.717 126.661,371.570 126.548,371.806 125.932 C 371.972 125.501,372.061 125.164,372.004 125.185 C 371.947 125.205,371.635 125.329,371.311 125.460 M173.554 125.949 C 159.793 127.774,148.351 139.879,147.039 154.000 L 146.738 157.239 148.862 159.729 C 153.483 165.145,155.812 169.632,157.464 176.303 L 158.538 180.638 161.455 182.587 C 165.148 185.054,170.893 186.965,175.742 187.339 L 179.509 187.629 179.129 185.078 C 176.379 166.620,185.963 149.342,202.687 142.608 L 205.373 141.527 203.884 139.358 C 197.130 129.529,185.462 124.370,173.554 125.949 M359.552 127.131 C 359.608 128.008,359.917 128.234,361.157 128.302 C 363.033 128.405,363.130 127.880,361.393 127.009 C 360.679 126.651,359.957 126.288,359.789 126.202 C 359.621 126.116,359.514 126.534,359.552 127.131 M384.888 132.181 C 384.888 132.673,385.173 133.184,385.522 133.318 C 385.977 133.493,386.095 133.239,385.940 132.424 C 385.682 131.078,384.888 130.894,384.888 132.181 M369.776 146.635 C 369.776 155.736,369.946 161.039,370.239 161.039 C 371.108 161.039,371.229 158.914,371.093 146.105 C 370.985 136.007,371.081 133.343,371.547 133.522 C 371.871 133.647,372.137 133.537,372.137 133.277 C 372.137 132.813,371.064 132.231,370.209 132.231 C 369.955 132.231,369.776 138.203,369.776 146.635 M307.202 132.999 C 302.389 133.947,300.908 134.345,298.382 135.372 C 271.283 146.383,269.572 185.482,295.632 198.219 C 326.006 213.065,357.102 181.968,342.257 151.594 C 336.250 139.304,319.718 130.535,307.202 132.999 M383.823 134.711 C 383.696 135.295,383.447 136.117,383.269 136.538 C 383.045 137.066,383.235 137.378,383.885 137.548 C 384.703 137.762,384.770 137.649,384.402 136.682 C 384.142 135.999,384.155 135.462,384.434 135.290 C 385.004 134.938,385.033 133.648,384.471 133.648 C 384.241 133.648,383.950 134.126,383.823 134.711 M374.498 135.301 C 374.822 135.691,375.379 136.009,375.737 136.009 C 376.094 136.009,376.387 136.245,376.387 136.532 C 376.387 136.820,376.706 136.933,377.096 136.783 C 377.485 136.634,377.804 136.717,377.804 136.969 C 377.804 137.220,378.146 137.426,378.563 137.426 C 378.980 137.426,379.220 137.692,379.096 138.017 C 378.951 138.398,379.350 138.625,380.226 138.657 C 381.841 138.717,382.017 138.098,380.519 137.631 C 379.935 137.448,379.351 137.168,379.221 137.008 C 378.796 136.486,375.092 134.593,374.494 134.593 C 374.032 134.593,374.033 134.741,374.498 135.301 M74.852 143.895 C 46.467 147.660,38.641 185.976,63.209 200.900 C 69.175 204.524,79.920 206.427,85.520 204.851 L 86.743 204.506 85.424 201.781 C 77.466 185.341,83.474 163.115,98.430 153.666 C 101.073 151.996,101.041 151.889,97.132 149.223 C 90.549 144.735,82.690 142.855,74.852 143.895 M212.751 143.861 C 207.938 144.809,206.457 145.207,203.931 146.233 C 168.753 160.528,179.430 212.928,217.473 212.692 C 243.253 212.532,259.295 185.963,247.806 162.456 C 241.799 150.166,225.267 141.396,212.751 143.861 M115.939 150.945 C 111.126 151.893,109.644 152.291,107.119 153.317 C 80.020 164.329,78.308 203.428,104.368 216.165 C 134.742 231.010,165.839 199.914,150.994 169.540 C 144.987 157.250,128.455 148.480,115.939 150.945 M351.739 166.057 C 351.819 169.299,352.082 171.901,352.329 171.901 C 353.042 171.901,352.900 160.716,352.184 160.440 C 351.727 160.264,351.627 161.529,351.739 166.057 M380.169 160.554 C 379.654 160.880,379.605 161.140,379.988 161.523 C 380.371 161.905,380.580 161.784,380.766 161.070 C 380.907 160.534,380.988 160.098,380.948 160.102 C 380.907 160.106,380.557 160.309,380.169 160.554 M380.336 166.706 C 380.336 169.174,380.415 170.183,380.512 168.949 C 380.610 167.715,380.610 165.697,380.512 164.463 C 380.415 163.229,380.336 164.238,380.336 166.706 M253.927 189.256 C 253.816 189.451,253.462 190.460,253.140 191.499 C 251.633 196.365,246.609 203.684,242.300 207.292 L 240.005 209.213 242.553 213.019 C 243.954 215.113,245.100 217.131,245.100 217.504 C 245.100 217.877,245.395 218.182,245.756 218.182 C 246.140 218.182,246.550 218.915,246.744 219.949 C 247.227 222.525,247.330 222.567,249.498 221.081 C 258.298 215.049,257.230 215.179,300.557 214.889 C 333.683 214.668,337.754 214.561,337.134 213.932 C 336.751 213.542,336.175 212.042,335.856 210.599 C 335.277 207.987,333.179 203.156,331.897 201.483 C 331.247 200.634,331.142 200.646,328.803 201.831 C 313.110 209.784,292.667 205.408,281.714 191.753 L 279.427 188.902 266.778 188.902 C 259.821 188.902,254.038 189.061,253.927 189.256 M153.691 204.368 C 150.041 210.675,144.198 216.246,137.720 219.599 L 134.165 221.438 135.703 222.388 C 137.620 223.573,142.616 228.762,143.816 230.815 L 144.714 232.349 149.311 232.349 C 153.646 232.349,154.028 232.268,156.024 230.921 C 158.575 229.200,162.325 227.504,166.067 226.378 C 168.584 225.622,172.184 225.533,206.262 225.388 L 243.692 225.228 243.388 223.948 C 242.555 220.435,240.203 215.780,237.647 212.585 L 236.759 211.474 234.345 212.697 C 219.845 220.045,201.479 217.031,189.842 205.394 L 186.573 202.125 170.781 202.125 L 154.989 202.125 153.691 204.368 M262.852 219.423 C 259.265 220.201,254.714 222.114,251.894 224.030 L 250.076 225.266 255.735 225.269 C 271.572 225.279,283.239 231.480,289.953 243.456 C 291.115 245.529,292.284 247.455,292.550 247.736 C 292.816 248.017,294.936 255.906,297.260 265.266 L 301.485 282.284 347.791 282.514 C 373.259 282.640,394.232 282.671,394.397 282.582 C 394.562 282.492,393.434 277.476,391.890 271.434 C 390.347 265.392,388.307 257.261,387.359 253.365 C 386.410 249.469,385.506 246.175,385.350 246.045 C 385.194 245.915,384.795 244.576,384.465 243.070 C 382.213 232.793,373.995 224.089,362.689 220.006 L 359.622 218.899 312.869 218.807 C 272.863 218.729,265.645 218.818,262.852 219.423 M36.364 220.553 C 24.164 222.684,14.305 233.330,12.969 245.814 C 12.775 247.629,11.797 252.196,10.794 255.962 C 9.792 259.728,8.107 266.071,7.049 270.056 C 5.991 274.041,5.229 277.405,5.355 277.532 C 5.482 277.658,13.253 277.607,22.624 277.418 L 39.663 277.075 40.113 275.445 C 40.548 273.869,42.256 266.313,43.715 259.504 C 45.758 249.976,53.131 240.853,62.574 236.169 C 69.981 232.496,67.991 232.669,106.257 232.376 L 140.496 232.113 137.190 228.799 C 132.145 223.740,130.067 222.691,126.370 223.335 C 120.091 224.428,113.122 223.695,106.260 221.220 L 103.073 220.071 70.781 220.126 C 53.020 220.157,37.532 220.349,36.364 220.553 M169.572 229.551 C 168.421 229.780,166.083 230.437,164.377 231.011 L 161.275 232.054 165.809 232.633 C 177.657 234.146,187.152 240.364,193.130 250.523 C 195.589 254.702,195.697 255.051,200.379 273.955 L 205.133 293.145 252.389 293.376 C 278.380 293.503,299.781 293.533,299.946 293.444 C 300.262 293.273,295.453 273.411,294.701 271.783 C 294.462 271.263,293.534 267.863,292.641 264.227 C 289.988 253.431,289.082 250.279,287.872 247.637 C 284.257 239.740,277.188 233.539,268.372 230.533 L 264.699 229.280 218.182 229.207 C 192.597 229.167,170.723 229.322,169.572 229.551 M71.955 236.826 C 59.018 239.670,49.331 249.620,46.947 262.514 C 46.581 264.495,46.102 267.072,45.882 268.241 C 45.561 269.950,38.862 296.393,37.956 299.528 C 37.729 300.313,41.878 300.354,120.393 300.354 C 165.865 300.354,203.070 300.279,203.070 300.187 C 203.070 299.573,193.953 263.399,192.939 259.989 C 189.592 248.734,182.294 241.177,171.192 237.468 L 167.887 236.364 121.370 236.276 C 83.841 236.206,74.293 236.312,71.955 236.826 " stroke="none" fill="#ffffff" fill-rule="evenodd"></path></g></svg>